<svg id="Layer_1" xmlns="http://www.w3.org/2000/svg" version="1.1" viewBox="38.62 57.75 431.88 377.4">
  <!-- Generator: Adobe Illustrator 30.1.0, SVG Export Plug-In . SVG Version: 2.1.1 Build 65)  -->
  <defs>
    <style>
      .st0 {
        fill: #ec2337;
      }
    </style>
  </defs>
  <path class="st0" d="M159.57,112.55c13.68-.25,26.45,3.55,37.18,10.33v-59.76c-11.48-3.53-23.68-5.41-36.3-5.37-66.75.21-121.38,54.65-121.83,121.38-.45,67.9,54.44,123.08,122.22,123.08,12.51,0,24.55-1.87,35.91-5.37v-59.73c-10.4,6.54-22.72,10.33-35.91,10.33-37.14,0-67.28-30.06-67.45-67.16-.16-36.67,29.53-67.06,66.19-67.73Z"></path>
  <path class="st0" d="M470.49,311.62c.7,67.85-53.87,123.1-121.44,123.53-68.02.43-123.02-55.55-123.02-123.57V76.58c34.29,21.65,57.05,59.86,57.05,103.41,0,.49,0,.98-.02,1.44h.02v132.78c0,36.28,29.24,66.32,65.52,66.15.66,0,1.33-.02,1.97-.04,35.5-1.19,64.27-30.23,65.11-65.76.92-38-29.61-69.11-67.42-69.11-13.21,0-25.53,3.79-35.91,10.34v-59.74c11.46-3.51,23.62-5.39,36.25-5.37,66.58.18,121.21,54.36,121.89,120.93Z"></path>
</svg>