<svg xmlns="http://www.w3.org/2000/svg" xmlns:xlink="http://www.w3.org/1999/xlink" xmlns:v="https://vecta.io/nano" width="700" height="946" fill="none"><g style="mix-blend-mode:screen" opacity=".14"><path style="mix-blend-mode:screen" d="M212.414 690.418c3.689-4.597 7.592-9.179 11.352-13.602 14.786-17.378 30.083-35.332 37.221-59.366 6.541-22.003 5.491-47.061-3.037-72.464-7.735-22.789-20.272-43.589-36.738-60.951-16.688-17.392-35.859-30.995-54.391-44.15-15.694-11.153-31.928-22.68-46.643-36.427-23.428-21.988-43.777-51.109-58.846-84.207-15.281-33.903-24.845-70.171-28.295-107.291-3.386-37.743-.712-75.794 7.918-112.666C49.582 62.623 64.07 28.285 82.886 0l.326.36C64.439 28.588 49.979 62.853 41.366 99.424a354.29 354.29 0 0 0-7.89 112.392c3.437 37.021 12.978 73.193 28.224 107.002 15.042 33.026 35.348 62.09 58.733 84.035 14.687 13.79 30.921 25.317 46.615 36.455 18.546 13.17 37.732 26.787 54.447 44.208 16.531 17.423 29.122 38.297 36.895 61.167 8.514 25.548 9.621 50.749 3.051 72.882-7.18 24.15-22.52 42.161-37.349 59.568l-11.352 13.602" fill="url(#A)"></path><path style="mix-blend-mode:screen" d="M155.128 978.948c-6.059-42.075-8.33-75.98-7.095-106.628 1.788-46.585 11.224-91.225 27.288-129.092 6.587-15.867 14.666-31.053 24.123-45.346 4.966-7.435 10.458-14.597 16.276-22.176 5.236-6.844 10.671-13.919 15.609-21.153 6.989-9.884 12.649-20.671 16.83-32.075 7.407-20.979 8.329-43.703 2.752-67.507-5.281-22.222-15.374-42.97-29.543-60.735-13.524-16.714-29.331-30.129-44.628-43.112-13.453-11.427-27.373-23.242-39.903-37.378-19.199-21.815-35.603-50.144-47.438-82.06-12.827-35.345-20.101-72.519-21.555-110.159a416.18 416.18 0 0 1 11.792-114.452c9.195-37.464 23.585-73.098 41.578-103.069l.496.49c-17.922 29.899-32.311 65.447-41.435 102.809-9.191 37.309-13.151 75.747-11.764 114.179 1.434 37.562 8.689 74.66 21.498 109.928 11.749 31.83 28.096 60.087 47.238 81.729 12.502 14.107 26.408 25.937 39.846 37.32 15.311 12.968 31.219 26.441 44.713 43.228 14.245 17.862 24.39 38.723 29.7 61.066 5.549 23.66 4.584 47.205-2.838 68.069-4.221 11.437-9.924 22.253-16.957 32.162-4.966 7.204-10.401 14.409-15.609 21.196-5.804 7.579-11.352 14.726-16.248 22.132a269.16 269.16 0 0 0-24.123 45.202c-16.006 37.781-25.414 82.305-27.202 128.746-1.178 30.663 1.092 64.496 7.095 106.513" fill="url(#B)"></path><path style="mix-blend-mode:screen" d="M165.713 980.36l-2.994-20.173c-4.498-30-8.741-58.343-9.933-85.461-1.859-44.467 3.264-87.42 14.843-124.207a238.54 238.54 0 0 1 18.703-45.202c5.988-10.908 13.977-22.06 21.696-32.839l9.153-12.968c8.386-12.147 13.963-21.988 18.092-31.931a122.85 122.85 0 0 0 7.833-64.841c-2.979-20.82-10.341-40.743-21.583-58.415-10.486-16.095-23.087-29.352-35.262-42.176-11.083-11.671-22.548-23.732-32.765-38.17-15.609-22.003-28.381-50.432-37.065-82.133-9.603-36.062-14.212-73.308-13.693-110.662.851-76.83 21.583-158.127 56.888-223.156l.724.62c-35.277 64.842-55.966 145.922-56.761 222.435-.518 37.233 4.076 74.357 13.651 110.302 8.656 31.701 21.413 59.943 36.894 81.83 10.189 14.41 21.626 26.427 32.638 38.069 12.203 12.853 24.832 26.139 35.376 42.306 11.354 17.851 18.788 37.976 21.796 59.006 3.308 22.148.574 44.794-7.904 65.475-4.158 10.015-9.777 19.914-18.22 32.118l-9.153 12.969c-7.705 10.749-15.68 21.873-21.626 32.737-7.728 14.298-13.968 29.375-18.617 44.986-11.537 36.657-16.645 79.452-14.786 123.775 1.135 27.032 5.378 55.346 9.933 85.303l2.994 20.173" fill="url(#C)"></path><path style="mix-blend-mode:screen" d="M176.299 981.758c-2.753-18.732-6.243-36.455-9.621-53.559-3.547-17.882-6.882-34.77-8.982-51.067-5.435-42.118-4.612-83.371 2.37-119.322 2.639-13.531 5.818-28.156 13.282-45.101 6.584-14.971 17.312-30.331 27.685-45.187l2.1-3.012a227.41 227.41 0 0 0 19.355-31.945c9.304-19.295 13.732-40.638 12.885-62.104-.766-19.484-5.435-38.606-13.722-56.196-7.578-15.677-16.73-28.3-26.408-41.671-8.514-11.773-17.355-23.948-25.117-38.516-11.862-22.262-21.129-50.793-26.72-82.349-6.144-34.236-8.159-72.666-5.761-111.095 4.726-76.657 26.734-159.942 60.393-228.53l.852.692c-33.645 68.357-55.569 151.47-60.308 227.839-2.327 38.343-.327 76.643 5.804 110.749 5.59 31.441 14.771 59.784 26.563 81.96 7.72 14.496 16.518 26.643 25.018 38.386 9.72 13.415 18.901 26.081 26.521 41.859 8.389 17.776 13.112 37.105 13.878 56.801.865 21.72-3.612 43.316-13.027 62.839a228.85 228.85 0 0 1-19.454 32.089l-2.1 2.997c-10.345 14.813-21.044 30.13-27.572 44.971-7.393 16.816-10.557 31.34-13.168 44.784-6.953 35.778-7.776 76.859-2.37 118.79 2.1 16.253 5.435 33.141 8.968 50.965 3.377 17.118 6.882 34.827 9.635 53.646" fill="url(#D)"></path><path style="mix-blend-mode:screen" d="M186.884 983.17c-3.774-25.619-9.933-48.285-15.808-70.202l-8.514-33.357c-8.883-39.813-12.359-79.38-10.089-114.409.837-12.796 1.774-27.306 7.833-45.015 5.676-16.714 17.199-34.236 28.749-50.677 7.166-10.173 14.574-20.706 20.604-31.859 10.134-18.277 16.257-38.562 17.951-59.467 1.328-18.171-.659-36.436-5.861-53.876-4.753-15.418-11.125-28.17-17.865-41.657a339.43 339.43 0 0 1-17.142-38.357c-8.116-22.68-13.764-51.239-16.347-82.579-2.867-37.185-2.183-74.564 2.044-111.614 8.514-76.369 31.786-161.628 63.855-234.006l1.036.764c-32.041 72.219-55.341 157.305-63.756 233.429a584.78 584.78 0 0 0-2.043 111.211c2.568 31.196 8.187 59.582 16.247 82.132 4.891 13.07 10.578 25.818 17.028 38.17 6.769 13.559 13.183 26.369 17.979 41.931 5.268 17.669 7.278 36.172 5.932 54.582-1.706 21.157-7.897 41.688-18.149 60.187a326.92 326.92 0 0 1-20.704 32.032c-11.494 16.34-22.903 33.747-28.536 50.26-5.974 17.478-6.911 31.844-7.734 44.524-2.27 34.856 1.192 74.222 10.033 113.833 2.384 10.663 5.349 21.614 8.514 33.285 5.931 21.96 12.061 44.669 15.85 70.404" fill="url(#E)"></path><path style="mix-blend-mode:screen" d="M197.471 984.568c-4.512-30.461-13.949-56.859-22.264-80.13-2.838-7.781-5.407-15.115-7.762-22.334-12.161-37.349-19.966-75.202-22.548-109.51v-.836c-.994-12.968-2.015-26.527 2.426-44.121 3.704-14.683 12.771-32.075 27.713-53.17l4.584-6.427c6.187-8.645 12.047-16.858 17.283-25.432 11.551-18.934 19.299-38.055 23.003-56.844 3.38-16.981 4.06-34.401 2.015-51.6-1.944-15.677-5.676-28.977-9.536-43.04-3.136-11.311-6.386-23.055-8.968-36.801-4.257-23.055-6.372-51.729-5.974-82.724a780.61 780.61 0 0 1 9.933-112.06c12.005-75.389 36.568-162.666 67.318-239.366l1.22.821c-30.693 76.556-55.214 163.66-67.318 238.977-5.995 36.942-9.315 74.28-9.933 111.715-.397 30.85 1.66 59.294 5.931 82.277 2.569 13.703 5.804 25.36 8.926 36.613 3.931 14.165 7.634 27.522 9.593 43.372a166.78 166.78 0 0 1-2.03 52.32c-3.76 19.02-11.579 38.372-23.257 57.493-5.265 8.645-11.139 16.844-17.355 25.547l-4.512 6.485c-14.815 20.907-23.783 38.083-27.43 52.521-4.342 17.291-3.334 30.548-2.369 43.401v.836c2.582 34.077 10.344 71.757 22.448 108.948 2.356 7.204 4.967 14.51 7.748 22.262 8.344 23.372 17.823 49.87 22.364 80.547" fill="url(#F)"></path><path style="mix-blend-mode:screen" d="M208.057 985.98c-5.137-34.366-17.908-62.176-29.104-86.715l-6.613-14.625a599.71 599.71 0 0 1-34.993-104.496l-.383-1.614c-2.838-12.42-5.818-25.259-2.738-43.314 3.391-19.885 16.375-41.268 26.677-55.691l9.848-13.444 13.282-18.401c13.027-19.078 22.222-36.83 28.096-54.251 5.368-15.96 8.682-32.557 9.863-49.38 1.22-17.161.326-32.132-.611-47.997l-1.419-31.7c-.181-27.674 1.292-55.333 4.414-82.825a1150.02 1150.02 0 0 1 17.766-112.478c15.453-74.207 40.626-161.167 70.95-244.885l1.419.85c-30.225 83.574-55.341 170.462-70.794 244.554a1149.66 1149.66 0 0 0-17.781 112.276c-3.104 27.387-4.569 54.941-4.384 82.508.213 11.628.809 21.758 1.419 31.541.936 15.951 1.83 31.024.61 48.343-1.174 17.032-4.513 33.838-9.933 50-5.946 17.608-15.212 35.534-28.38 54.755-4.258 6.153-8.628 12.133-13.325 18.444l-9.82 13.43c-10.287 14.279-23.059 35.273-26.365 54.784-2.994 17.55-.085 30.144 2.71 42.305l.384 1.628c8.415 35.71 20.082 70.548 34.851 104.064l6.598 14.596c11.352 24.683 24.123 52.651 29.288 87.363" fill="url(#G)"></path><path style="mix-blend-mode:screen" d="M218.643 987.378c-5.676-37.724-21.938-66.182-36.313-91.283l-5.066-8.919a839.92 839.92 0 0 1-47.437-99.496l-.696-1.686c-4.782-11.988-9.748-24.395-7.946-43.227 2.143-22.637 17.028-46.211 25.627-58.228 5.165-7.205 10.444-13.919 15.609-20.447l8.855-11.397c14.772-19.467 25.642-36.384 33.205-51.686 7.399-15.117 13.339-30.926 17.738-47.205 6.144-22.219 8.854-40.937 12.302-64.64l2.172-14.812c4.001-26.412 8.968-54.309 14.743-82.897 7.45-37.291 16.063-75.273 25.627-112.881 17.369-68.199 41.705-150.015 74.343-250.303l1.617.879c-32.637 100.23-56.945 182.046-74.342 250.13-9.536 37.564-18.149 75.504-25.542 112.752-5.776 28.544-10.728 56.383-14.729 82.752l-2.172 14.798c-3.448 23.804-6.186 42.594-12.359 64.986-4.439 16.436-10.441 32.395-17.922 47.651-7.635 15.447-18.561 32.478-33.432 52.046-2.838 3.79-5.847 7.594-8.869 11.441-5.094 6.499-10.359 13.228-15.496 20.36-8.514 11.83-23.087 34.971-25.187 56.974-1.717 18.156 3.107 30.26 7.776 41.917l.681 1.7a834.84 834.84 0 0 0 47.296 99.193l5.066 8.905c14.474 25.303 30.877 53.977 36.624 92.219" fill="url(#H)"></path><path style="mix-blend-mode:screen" d="M229.228 988.79c-6.144-40.764-27.06-70.605-43.847-94.525l-3.179-4.539c-19.866-28.458-38.824-58.487-59.854-94.51l-.823-1.441c-6.499-11.095-13.878-23.674-13.367-43.487.468-17.68 9.422-39.841 24.591-60.792 7.095-9.885 14.645-18.732 21.867-27.378l3.818-4.524c16.034-19.093 28.692-34.755 38.313-49.121 9.558-14.388 18.134-29.423 25.67-45 11.976-24.28 20.349-45.764 30.92-79.251l24.393-80.692 7.28-24.755 26.861-90.778 29.658-96.743 48.246-158.963 1.817.893-48.247 158.992-29.643 96.729-26.862 90.778-7.294 24.856-24.407 80.692c-10.614 33.66-19.043 55.245-31.09 79.668a385.14 385.14 0 0 1-25.826 45.303c-9.706 14.409-22.407 30.158-38.484 49.323l-3.817 4.524c-7.209 8.53-14.658 17.363-21.754 27.176-14.857 20.533-23.64 42.089-24.123 59.179-.482 18.933 6.357 30.605 12.97 41.902l.823 1.44c21.001 36.024 39.988 65.937 59.74 94.338l3.179 4.524c16.957 24.193 38.072 54.294 44.33 95.735" fill="url(#I)"></path><path style="mix-blend-mode:screen" d="M239.814 990.187c-6.627-43.602-31.658-73.127-51.78-96.859l-.894-1.066c-24.123-28.501-45.735-55.879-64.792-80.043l-8.245-10.432c-8.5-10.721-18.163-22.969-18.958-43.862-.71-18.487 8.089-42.176 23.528-63.401 8.356-11.149 17.359-21.782 26.961-31.844l19.384-20.576 24.123-25.937c13.367-15.288 24.478-30.259 33.574-42.795 18.282-24.754 34.146-51.258 47.366-79.136 10.487-21.772 22.052-48.991 35.39-83.04 11.977-30.879 25.543-68.069 41.294-113.703 35.475-101.859 62.025-187.32 81.338-261.095l2.029.893c-19.341 73.905-45.976 159.38-81.423 261.326-15.822 45.663-29.331 82.896-41.336 113.833-13.353 34.236-24.989 61.412-35.475 83.227-13.321 28.025-29.294 54.668-47.693 79.554-9.139 12.622-20.292 27.608-33.73 42.982-7.095 8.141-15.382 16.83-24.124 26.038l-19.355 20.547c-9.547 9.988-18.493 20.55-26.791 31.628-15.056 20.663-23.641 43.603-22.959 61.355.752 19.827 9.691 31.124 18.333 42.046l8.245 10.432 64.735 79.986.894 1.066c20.349 23.992 45.678 53.862 52.432 98.358" fill="url(#J)"></path><path style="mix-blend-mode:screen" d="M250.414 991.599c-7.095-46.282-36.682-75.461-58.307-96.786l-42.571-42.594-42.059-41.96-.469-.461c-10.642-10.418-22.704-22.233-24.832-44.308-1.901-19.496 6.499-44.15 22.463-65.951 8.562-11.371 18.015-22.02 28.266-31.844 12.303-12.133 24.223-22.536 34.738-31.701l13.892-12.233c15.609-14.078 29.161-27.824 41.492-40.562 23.484-24.265 43.336-46.989 63.855-78.963 14.474-22.478 29.8-50.432 45.693-83.141s32.197-70.951 49.14-114.179c25.457-64.841 60.847-163.688 84.814-266.455l2.228.865c-24.095 103.026-59.541 202.046-85.041 267.031-16.901 43.228-33.46 81.657-49.226 114.352s-31.332 60.879-45.862 83.458c-20.647 32.176-40.584 55.015-64.182 79.395-12.374 12.781-25.968 26.542-41.62 40.677l-13.92 12.263c-10.487 9.164-22.378 19.538-34.638 31.613a262.33 262.33 0 0 0-27.983 31.485c-15.468 21.152-23.669 44.899-21.853 63.53 2.015 20.821 13.665 32.219 23.924 42.276l.483.476 42.074 41.974 42.57 42.594c21.91 21.613 51.922 51.196 59.159 98.588" fill="url(#K)"></path><path style="mix-blend-mode:screen" d="M261 993.012c-6.882-44.914-36.596-72.925-63.856-95.649l-11.281-9.409-85.807-70.202c-12.772-10.086-27.331-21.383-30.878-44.668-3.746-24.136 8.585-51.182 21.342-68.473 8.754-11.627 18.663-22.308 29.572-31.873 15.609-14.064 31.218-25.188 44.94-35l8.826-6.34c18.987-13.747 35.632-27.075 49.425-38.3 25.627-20.893 53.099-44.885 80.316-78.833 18.518-23.055 37.362-51.052 55.994-83.271 21.057-37.074 40.067-75.308 56.945-114.524 27.756-63.603 65.615-162.291 88.277-271.888l2.426.85c-22.704 109.856-60.691 208.934-88.518 272.565-16.925 39.336-35.993 77.686-57.115 114.87-18.717 32.364-37.646 60.519-56.264 83.675-27.387 34.135-54.972 58.256-80.713 79.251-13.821 11.253-30.509 24.611-49.538 38.4l-8.84 6.34c-13.694 9.784-29.204 20.85-44.728 34.827-10.757 9.43-20.533 19.956-29.175 31.412-12.331 16.729-24.265 42.767-20.774 65.706 3.335 21.874 17.355 32.839 29.799 42.508 26.962 21.109 55.569 44.985 85.865 70.259l11.267 9.395c27.756 23.055 57.952 51.599 65.019 97.752" fill="url(#L)"></path><path style="mix-blend-mode:screen" d="M271.587 994.409c-6.883-44.668-37.477-71.815-69.532-94.51-32.907-23.343-71.646-50.432-109.505-74.668-14.006-8.891-31.431-19.957-36.44-44.539-3.391-16.585.184-43.977 20.335-71.139 8.938-11.885 19.301-22.593 30.849-31.873 17.937-14.798 36.511-25.634 52.901-35.187l6.045-3.545c17.596-10.331 35.262-21.455 57.314-36.023 29.246-19.524 63.614-44.15 96.805-78.689 22.548-23.429 44.855-51.498 66.296-83.415 24.252-36.699 45.89-75.111 64.75-114.942 43.45-90.432 75.208-186.282 91.739-277.176l2.625.792c-16.631 91.268-48.459 187.478-92.065 278.213-18.937 39.985-40.661 78.546-65.005 115.389-21.541 32.075-43.99 60.288-66.694 83.847-33.389 34.741-67.9 59.467-97.259 79.064-22.094 14.625-39.803 25.763-57.442 36.124l-6.045 3.53c-16.304 9.524-34.78 20.302-52.503 34.957a176.26 176.26 0 0 0-30.367 31.354c-12.118 16.355-24.549 43.934-19.682 67.853 4.697 23.055 21.526 33.732 35.035 42.306 37.901 24.236 76.626 51.383 109.604 74.74 32.637 23.055 63.771 50.822 70.866 96.888" fill="url(#M)"></path><path style="mix-blend-mode:screen" d="M282.17 995.821c-7.208-46.57-42.017-73.343-75.122-93.386-46.274-28.055-86.163-50.85-121.908-69.74-14.985-7.853-35.475-18.632-42.003-44.41-6.669-26.426 6.201-56.296 19.299-73.732 9.159-12.143 19.994-22.882 32.169-31.887 19.511-14.842 40.57-24.871 59.144-33.732l4.939-2.363c21.072-10.087 42.414-21.139 65.274-33.776 46.742-26.051 81.679-50.288 113.28-78.544 28.069-25.354 53.724-53.336 76.627-83.574 27.374-36.294 51.652-74.892 72.568-115.374 47.111-90.202 80.004-187.897 95.074-282.522l2.838.749c-15.141 95.101-48.247 193.257-95.627 283.862-21.03 40.67-45.436 79.447-72.952 115.908-23.015 30.395-48.799 58.521-77.01 84.006-31.771 28.415-66.864 52.752-113.79 78.904-22.861 12.666-44.231 23.732-65.36 33.848l-4.938 2.363c-19.37 9.236-39.378 18.732-58.691 33.458a154.71 154.71 0 0 0-31.545 31.254c-12.473 16.758-24.833 45.115-18.575 70.014 6.073 24.136 25.883 34.582 40.357 42.104 35.801 18.89 75.732 41.787 122.035 69.812 33.758 20.447 69.276 47.839 76.726 96.038" fill="url(#N)"></path><path style="mix-blend-mode:screen" d="M292.759 997.234c-7.492-48.271-45.011-73.732-80.728-92.219-48.487-25.202-92.434-46.413-134.338-64.842-15.751-6.902-39.576-17.291-47.565-44.265-5.108-17.205-3.406-47.551 18.178-76.369 9.377-12.406 20.683-23.177 33.475-31.888 20.973-14.625 43.379-23.386 65.048-31.815l4.257-1.628c24.464-9.568 49.055-20.173 73.107-31.513 51.454-24.366 92.69-49.28 129.783-78.415 31.598-24.958 60.714-52.997 86.929-83.718 30.417-35.872 57.334-74.656 80.373-115.807 51.084-90.23 85.141-189.769 98.664-287.867l3.008.749c-13.594 98.703-47.892 198.847-99.189 289.51-23.164 41.368-50.229 80.355-80.813 116.412-26.348 30.887-55.616 59.077-87.382 84.164-37.264 29.266-78.671 54.294-130.323 78.747-24.123 11.369-48.757 22.003-73.277 31.585l-4.258 1.642c-21.512 8.387-43.776 17.061-64.465 31.513-12.498 8.497-23.551 19.005-32.722 31.11-20.576 27.464-22.293 56.037-17.511 72.161 6.896 23.286 25.542 33.142 45.678 41.917 41.932 18.429 85.921 39.683 134.494 64.885 15.254 7.925 34.837 19.063 51.084 35.043 17.653 17.406 27.969 37.075 31.559 60.129" fill="url(#O)"></path><path style="mix-blend-mode:screen" d="M303.343 998.631c-7.833-50.173-50.247-75.057-86.319-91.153-50.133-22.363-99.515-42.507-146.768-59.87-22.051-8.098-44.33-18.155-53.114-44.106-9.082-26.802 2.043-58.963 17.028-78.934a131.19 131.19 0 0 1 34.851-31.917c22.009-14.135 46.289-21.858 69.773-29.337l4.598-1.441c27.33-8.645 54.589-18.487 81.011-29.236 55.626-22.695 103.475-48.3 146.258-78.285 35.08-24.612 67.656-52.715 97.245-83.891 33.415-35.428 62.986-74.398 88.206-116.239 54.873-90.389 90.178-191.772 102.169-293.199l3.235.634c-12.005 102.147-47.537 204.208-102.765 295.159-25.361 42.084-55.099 81.281-88.702 116.916a648.34 648.34 0 0 1-97.742 84.323c-43.095 30.086-91.087 55.778-146.925 78.559-26.478 10.778-53.794 20.648-81.196 29.323l-4.597 1.441c-23.315 7.42-47.409 15.1-69.106 29.034-13.055 8.197-24.544 18.722-33.914 31.066-14.289 18.992-24.904 49.338-16.432 74.338 8.216 24.265 29.7 33.933 51.085 41.786 47.31 17.392 96.748 37.551 146.939 59.943 36.894 16.455 80.302 42.046 88.461 94.308" fill="url(#P)"></path><path style="mix-blend-mode:screen" d="M313.929 1000c-8.188-52.32-56.377-76.455-91.909-90.043C169.516 889.885 116.005 871.398 62.821 855c-10.628-3.271-22.874-7.349-33.702-14.164-12.09-7.579-20.263-17.32-24.96-29.741-10.529-27.81.454-60.98 15.992-81.527 28.593-37.81 70.667-48.574 111.378-58.992l4.257-1.08c148.855-38.228 266.363-100.101 359.209-189.179C607.75 372.161 681.226 220.821 696.566 65.101l3.434.576c-15.467 156.917-89.398 309.352-202.919 418.214-93.286 89.466-211.248 151.556-360.628 189.971l-4.257 1.08C92.01 685.231 50.461 695.85 22.62 732.68 7.933 752.161-2.525 783.3 7.252 809.15c9.564 25.274 33.091 34.395 56.363 41.571 53.242 16.412 106.866 34.928 159.37 55.014 75.988 29.063 90.235 67.248 94.336 93.444" fill="url(#Q)"></path></g><defs><linearGradient id="A" x1="35.2" y1="356.728" x2="267.156" y2="354.929" xlink:href="#R"><stop stop-color="#6b99ef"></stop><stop offset="1" stop-color="#fffbff"></stop></linearGradient><linearGradient id="B" x1="72.177" y1="502.523" x2="257.688" y2="501.085" xlink:href="#R"><stop stop-color="#6b99ef"></stop><stop offset="1" stop-color="#fffbff"></stop></linearGradient><linearGradient id="C" x1="107.177" y1="505.005" x2="247.946" y2="503.913" xlink:href="#R"><stop stop-color="#6b99ef"></stop><stop offset="1" stop-color="#fffbff"></stop></linearGradient><linearGradient id="D" x1="140.944" y1="507.517" x2="239.198" y2="506.755" xlink:href="#R"><stop stop-color="#6b99ef"></stop><stop offset="1" stop-color="#fffbff"></stop></linearGradient><linearGradient id="E" x1="153.438" y1="510.245" x2="243.022" y2="509.55" xlink:href="#R"><stop stop-color="#6b99ef"></stop><stop offset="1" stop-color="#fffbff"></stop></linearGradient><linearGradient id="F" x1="145.813" y1="513.196" x2="281.572" y2="512.143" xlink:href="#R"><stop stop-color="#6b99ef"></stop><stop offset="1" stop-color="#fffbff"></stop></linearGradient><linearGradient id="G" x1="134.809" y1="516.162" x2="320.122" y2="514.725" xlink:href="#R"><stop stop-color="#6b99ef"></stop><stop offset="1" stop-color="#fffbff"></stop></linearGradient><linearGradient id="H" x1="122.727" y1="519.158" x2="358.671" y2="517.329" xlink:href="#R"><stop stop-color="#6b99ef"></stop><stop offset="1" stop-color="#fffbff"></stop></linearGradient><linearGradient id="I" x1="110.049" y1="522.16" x2="397.234" y2="519.933" xlink:href="#R"><stop stop-color="#6b99ef"></stop><stop offset="1" stop-color="#fffbff"></stop></linearGradient><linearGradient id="J" x1="97.03" y1="525.166" x2="435.783" y2="522.539" xlink:href="#R"><stop stop-color="#6b99ef"></stop><stop offset="1" stop-color="#fffbff"></stop></linearGradient><linearGradient id="K" x1="83.785" y1="528.174" x2="474.333" y2="525.145" xlink:href="#R"><stop stop-color="#6b99ef"></stop><stop offset="1" stop-color="#fffbff"></stop></linearGradient><linearGradient id="L" x1="70.384" y1="531.201" x2="512.897" y2="527.77" xlink:href="#R"><stop stop-color="#6b99ef"></stop><stop offset="1" stop-color="#fffbff"></stop></linearGradient><linearGradient id="M" x1="56.912" y1="534.23" x2="551.447" y2="530.395" xlink:href="#R"><stop stop-color="#6b99ef"></stop><stop offset="1" stop-color="#fffbff"></stop></linearGradient><linearGradient id="N" x1="43.225" y1="537.242" x2="589.995" y2="533.002" xlink:href="#R"><stop stop-color="#6b99ef"></stop><stop offset="1" stop-color="#fffbff"></stop></linearGradient><linearGradient id="O" x1="29.642" y1="540.271" x2="628.547" y2="535.627" xlink:href="#R"><stop stop-color="#6b99ef"></stop><stop offset="1" stop-color="#fffbff"></stop></linearGradient><linearGradient id="P" x1="15.784" y1="543.304" x2="667.109" y2="538.253" xlink:href="#R"><stop stop-color="#6b99ef"></stop><stop offset="1" stop-color="#fffbff"></stop></linearGradient><linearGradient id="Q" x1="1.915" y1="546.336" x2="705.659" y2="540.879" xlink:href="#R"><stop stop-color="#6b99ef"></stop><stop offset="1" stop-color="#fffbff"></stop></linearGradient><linearGradient id="R" gradientUnits="userSpaceOnUse"></linearGradient></defs></svg>